<?xml version="1.0" encoding="utf-8"?>
<!-- Generator: Adobe Illustrator 23.0.1, SVG Export Plug-In . SVG Version: 6.00 Build 0)  -->
<svg version="1.1" id="Layer_1" xmlns="http://www.w3.org/2000/svg" xmlns:xlink="http://www.w3.org/1999/xlink" x="0px" y="0px"
	 viewBox="0 0 1366 376" style="enable-background:new 0 0 1366 376;" xml:space="preserve">
<style type="text/css">
	.st0{fill:#FFCB66;}
</style>
<g>
	<path class="st0" d="M812,1c1.67,0,3.33,0,5,0c1.59,0.38,3.16,0.85,4.77,1.12c6.22,1.02,12.58,1.48,18.64,3.09
		c4.88,1.3,9.37,1.64,14.13,0.02c6.99-2.38,14.08-2.23,21.15-0.26c7.42,2.07,14.23,6.81,22.54,4.96c0.67-0.15,1.52,0.57,2.3,0.86
		c15.77,5.96,31.16,13.92,48.93,9.23c0.15-0.04,0.33,0.02,0.5,0.02c13.89,0.62,27.79,1.11,41.67,1.9
		c7.76,0.45,15.18-0.38,22.54-3.07c3.97-1.45,8.61-2.99,12.56-2.28c13.38,2.41,26.72,5.32,39.81,8.96
		c9.94,2.76,19.83,4.15,30.06,3.58c9.3-0.52,18.58-1.49,27.69,1.75c2.24,0.8,4.95,0.55,7.41,0.37c11.46-0.84,22.9-1.9,34.36-2.7
		c2.45-0.17,4.94,0.55,7.42,0.6c3.06,0.06,6.47,0.68,9.14-0.4c13.36-5.37,26.86-7.36,41.04-3.89c2.19,0.53,4.82-0.21,7.12-0.84
		c3.2-0.87,6.21-2.81,9.43-3.19c5.43-0.63,10.97-0.69,16.45-0.45c5.12,0.23,10.21,1.16,15.31,1.79c12.15,1.5,24.29,3.09,36.46,4.42
		c2.24,0.24,4.6-0.6,6.9-0.94c17.23-2.55,34.46-5.11,51.68-7.66c0,119.67,0,239.33,0,359c-455.33,0-910.67,0-1366,0
		C1,259.33,1,141.67,1,24c9.5,2.11,18.95,4.48,28.52,6.23c5.09,0.93,10.43,1.38,15.57,1c5.75-0.43,11.38-2.3,17.12-3.1
		c8.06-1.12,16.17-2.02,24.29-2.61c4.73-0.35,9.85-0.95,14.22,0.4c8.73,2.7,17.24,3.03,26.09,1.38c9-1.67,18.04-3.52,27.03,0.34
		c1.27,0.54,2.96,0.22,4.44,0.13c13.44-0.82,26.87-1.77,40.32-2.47c3.41-0.18,6.15-0.68,9-3.13c6.52-5.61,14.76-5.51,22.78-4.9
		c8.88,0.68,17.72,2.02,26.61,2.65c2.31,0.16,5.15-0.69,7.02-2.07c6.28-4.64,12.77-3.52,19.53-1.79c3.34,0.86,6.8,1.71,10.21,1.72
		c12.78,0.01,25.61,0.3,38.33-0.7c21.47-1.68,42.11,4.55,63.25,5.53c2.89,0.13,5.83-1.01,8.75-1.53c1.76-0.31,3.55-0.88,5.29-0.76
		c5.91,0.4,11.8,1.24,17.72,1.56c6.15,0.33,12.34-0.03,18.47,0.4c12.07,0.84,24.2,4.82,36.03-1.24c0.68-0.35,1.65-0.11,2.47-0.21
		c14.95-1.78,29.89-3.57,44.83-5.36c0.33-0.04,0.64-0.19,0.97-0.22c7.6-0.65,15.19-1.47,22.8-1.89c5.4-0.29,10.9,0.56,16.22-0.15
		c11.65-1.55,23.18-4.03,34.83-5.62c8.85-1.21,17.99-0.82,26.68-2.67c8.15-1.74,15.85-1.83,24.1-0.96
		c15.75,1.65,31.37,3.29,46.65,7.83c4.37,1.3,9.68,1.34,14.1,0.19c9.98-2.6,19.69-2.63,29.57-0.06c1.68,0.44,3.84,0.79,5.25,0.11
		c4.64-2.25,9.09-1.45,13.58,0.04c5.42,1.8,10.37,1.11,15.28-1.85c2.17-1.31,4.85-2.15,7.38-2.43C795.25,6.81,804.19,6.12,812,1z"/>
</g>
</svg>
